<?xml version="1.0" standalone="no"?>
<!DOCTYPE svg PUBLIC "-//W3C//DTD SVG 20010904//EN"
 "http://www.w3.org/TR/2001/REC-SVG-20010904/DTD/svg10.dtd">
<svg version="1.0" xmlns="http://www.w3.org/2000/svg"
 width="1192.000000pt" height="1192.000000pt" viewBox="0 0 1192.000000 1192.000000"
 preserveAspectRatio="xMidYMid meet">
<metadata>
Created by potrace 1.11, written by Peter Selinger 2001-2013
</metadata>
<g transform="translate(0.000000,1192.000000) scale(0.100000,-0.100000)"
fill="#000000" stroke="none">
<path d="M9718 10455 c-2 -2 -30 -6 -63 -9 -79 -8 -120 -14 -176 -27 -26 -6
-53 -12 -60 -13 -48 -10 -187 -50 -224 -66 -11 -4 -36 -14 -55 -21 -19 -7 -69
-28 -110 -47 -41 -18 -77 -33 -79 -32 -2 1 -7 -2 -10 -7 -3 -4 -26 -19 -51
-32 -25 -13 -60 -35 -77 -48 -18 -13 -33 -21 -33 -18 0 3 -6 1 -12 -5 -7 -6
-53 -40 -103 -77 -94 -69 -283 -252 -351 -338 -21 -27 -42 -52 -45 -55 -19
-17 -162 -249 -196 -320 -71 -147 -125 -290 -139 -370 -3 -14 -9 -36 -14 -50
-6 -14 -12 -41 -14 -60 -3 -19 -6 -36 -7 -37 -1 -2 -3 -12 -4 -23 -1 -11 -4
-22 -5 -25 -1 -3 -4 -18 -5 -35 -1 -16 -3 -31 -5 -32 -12 -16 -18 -370 -6
-463 4 -33 9 -80 11 -105 7 -68 8 -70 14 -70 3 0 7 -10 7 -22 3 -45 23 -131
41 -178 3 -8 7 -19 8 -25 0 -5 4 -17 7 -25 3 -8 14 -37 23 -65 36 -103 111
-262 157 -332 16 -23 28 -46 28 -52 0 -6 5 -11 10 -11 6 0 10 -7 10 -15 0 -8
5 -15 10 -15 6 0 10 -7 10 -15 0 -8 5 -15 10 -15 6 0 10 -5 10 -11 0 -6 6 -16
13 -23 6 -7 23 -28 37 -46 26 -34 42 -53 87 -104 26 -29 26 -30 10 -59 -10
-16 -17 -35 -17 -43 0 -8 -4 -14 -10 -14 -5 0 -10 -6 -10 -13 0 -12 -55 -97
-92 -143 -45 -56 -181 -184 -195 -184 -4 0 -28 -15 -55 -32 -35 -24 -49 -41
-54 -64 -7 -37 7 -69 39 -86 31 -17 286 -19 362 -3 84 18 180 44 213 57 15 6
29 12 32 12 19 5 166 84 217 117 l61 40 82 -46 c46 -25 89 -45 96 -45 8 0 14
-4 14 -10 0 -5 3 -9 8 -8 4 1 21 -4 37 -11 43 -18 149 -59 155 -59 3 -1 12 -3
20 -6 46 -15 90 -27 109 -31 13 -2 30 -6 39 -9 9 -3 29 -8 45 -11 15 -3 37 -7
50 -9 166 -34 489 -39 657 -12 110 19 119 20 185 36 66 16 248 77 305 102 128
56 339 175 377 214 8 7 27 21 43 31 17 9 30 21 30 25 0 4 4 8 9 8 28 0 254
227 349 350 23 30 46 60 51 66 4 5 14 21 21 35 7 13 16 26 20 29 10 7 82 134
122 215 58 117 140 349 154 435 2 14 7 36 10 50 3 14 8 39 11 55 2 17 6 41 9
55 24 131 24 448 -1 595 -11 65 -14 80 -15 80 -1 0 -3 15 -6 34 -2 18 -12 59
-21 90 -9 31 -18 62 -20 69 -5 22 -10 37 -15 52 -3 8 -16 44 -29 80 -22 64
-117 270 -128 280 -4 3 -12 16 -19 30 -22 45 -53 95 -73 116 -10 11 -19 24
-19 28 0 8 -101 137 -140 178 -14 14 -34 37 -46 50 -45 51 -187 178 -249 222
-22 16 -41 33 -43 38 -2 4 -7 8 -12 8 -5 0 -41 22 -82 48 -117 78 -382 201
-465 217 -10 2 -18 4 -18 5 0 1 -7 3 -15 5 -8 2 -40 11 -70 20 -30 8 -71 18
-90 21 -19 3 -42 7 -51 10 -9 2 -34 7 -55 10 -22 3 -55 7 -74 10 -39 6 -397
14 -402 9z m825 -1039 c10 -8 43 -36 74 -62 31 -27 62 -53 69 -57 8 -4 25 -19
39 -31 l26 -24 -28 -33 c-15 -19 -32 -39 -38 -45 -5 -7 -17 -20 -25 -30 -45
-55 -166 -200 -171 -204 -3 -3 -30 -34 -60 -70 -29 -36 -58 -70 -64 -76 -10
-12 -15 -17 -100 -119 -27 -33 -52 -62 -55 -65 -3 -3 -27 -32 -54 -65 -28 -33
-57 -67 -65 -77 -9 -9 -27 -31 -41 -49 -14 -18 -32 -40 -41 -48 -8 -9 -62 -72
-120 -141 -57 -69 -108 -130 -114 -136 -5 -6 -19 -22 -30 -35 -11 -13 -42 -51
-70 -84 -27 -33 -54 -65 -60 -71 -9 -10 -56 -66 -111 -131 -11 -12 -35 -41
-54 -64 -19 -23 -65 -77 -101 -120 -37 -42 -72 -85 -77 -95 -10 -17 -13 -18
-35 -4 -13 8 -48 35 -77 60 -29 25 -72 61 -95 81 l-42 35 19 25 c11 13 39 47
63 75 24 28 66 77 92 110 26 32 53 64 59 69 6 6 33 37 60 70 27 33 51 62 54
65 3 3 28 32 55 65 28 33 60 71 72 85 50 59 211 250 243 290 19 23 44 52 55
64 11 12 38 44 60 70 22 27 48 58 59 70 10 11 35 41 55 66 20 24 43 51 51 60
8 9 31 36 52 61 20 24 44 54 55 66 33 39 57 67 116 138 64 76 130 154 164 194
20 24 73 87 98 118 13 15 16 15 38 -1z m-1213 -40 c25 -5 55 -14 68 -22 12 -8
22 -12 22 -9 0 6 47 -18 79 -40 8 -5 44 -39 79 -75 157 -159 189 -388 81 -590
-34 -62 -66 -101 -125 -147 -47 -37 -163 -95 -176 -87 -4 3 -8 1 -8 -3 0 -5
-8 -9 -17 -10 -106 -9 -157 -9 -199 -2 -48 9 -77 16 -81 19 -2 2 -6 3 -10 4
-28 7 -53 19 -53 26 0 4 -10 10 -23 14 -48 12 -197 178 -197 220 0 8 -4 17 -9
20 -11 7 -32 89 -37 140 -2 22 -6 46 -8 53 -3 7 -1 15 3 17 5 3 7 17 6 31 -5
37 11 91 48 165 35 73 45 86 104 142 51 49 64 58 129 92 52 27 71 33 134 43
19 3 36 6 38 8 5 4 106 -2 152 -9z m1315 -870 c58 -9 148 -45 190 -76 109 -81
191 -213 212 -340 6 -37 5 -141 -2 -170 -3 -14 -8 -36 -11 -49 -3 -13 -14 -41
-25 -62 -11 -22 -16 -39 -12 -39 4 0 -3 -9 -15 -20 -12 -12 -22 -24 -22 -28 0
-9 -88 -102 -96 -102 -4 0 -21 -10 -38 -23 -95 -70 -257 -100 -396 -72 -67 13
-159 66 -226 131 -37 35 -63 64 -58 64 5 0 4 4 -2 8 -10 6 -57 89 -59 102 0 3
-3 10 -6 15 -16 25 -31 151 -26 212 12 148 79 267 202 360 42 32 124 72 164
79 13 3 40 8 60 13 36 7 108 6 166 -3z"/>
<path d="M9160 9070 c-128 -35 -179 -167 -115 -295 24 -47 36 -59 83 -81 83
-39 158 -28 225 35 98 90 70 278 -48 331 -34 15 -108 20 -145 10z"/>
<path d="M10518 8219 c-16 -4 -28 -5 -28 -2 0 3 -6 0 -13 -6 -8 -6 -16 -9 -19
-6 -9 9 -84 -70 -97 -103 -14 -34 -15 -162 -1 -162 3 0 11 -12 17 -27 45 -101
222 -122 309 -38 39 38 55 73 58 130 3 42 -27 138 -44 143 -6 2 -8 7 -5 11 6
11 -64 48 -110 59 -22 5 -52 5 -67 1z"/>
<path d="M6789 8870 c-38 -11 -71 -30 -102 -59 -31 -28 -67 -98 -67 -129 0
-10 -23 -38 -51 -63 -28 -24 -65 -57 -83 -72 -17 -16 -47 -40 -66 -55 -19 -15
-37 -29 -40 -32 -42 -43 -377 -266 -392 -262 -5 1 -8 -3 -8 -8 0 -6 -4 -10 -9
-10 -6 0 -38 -17 -73 -37 -35 -21 -65 -38 -68 -38 -3 -1 -25 -11 -50 -24 -25
-13 -47 -23 -49 -22 -2 2 -7 -1 -10 -6 -13 -17 -347 -164 -355 -155 -3 3 -6 0
-6 -6 0 -7 -6 -12 -13 -12 -6 0 -52 -16 -101 -35 -49 -19 -98 -35 -108 -35
-10 0 -18 -5 -18 -11 0 -5 -4 -8 -10 -4 -5 3 -17 1 -27 -4 -38 -20 -359 -115
-430 -127 -15 -3 -37 -8 -48 -11 -11 -4 -24 -8 -30 -9 -69 -15 -85 -19 -145
-34 -25 -6 -61 -12 -81 -14 -20 -2 -41 -6 -46 -9 -5 -3 -32 -9 -59 -13 -27 -3
-51 -8 -54 -9 -3 -2 -24 -6 -48 -10 l-42 -6 -1 83 c0 46 -2 97 -2 113 l-2 30
-795 0 -795 0 -70 -23 c-76 -26 -148 -68 -209 -122 -40 -36 -123 -150 -109
-150 4 0 3 -4 -3 -8 -10 -7 -37 -78 -50 -133 -3 -13 -7 -96 -8 -184 l-2 -160
-102 -2 c-147 -4 -206 -37 -237 -131 -12 -39 -14 -732 -2 -781 10 -38 35 -69
76 -97 48 -31 53 -32 171 -33 l95 -1 1 -142 c2 -152 8 -218 25 -249 5 -11 7
-19 4 -19 -11 0 68 -137 98 -170 120 -132 253 -190 447 -195 111 -3 111 -3
108 -12 -1 -5 2 -19 5 -33 4 -14 9 -36 11 -50 3 -14 5 -25 7 -25 1 0 3 -9 4
-20 1 -11 12 -58 24 -105 13 -47 24 -92 26 -100 2 -8 13 -55 24 -105 12 -49
24 -101 27 -115 4 -23 7 -34 20 -80 3 -13 -12 -15 -94 -15 -53 -1 -115 -4
-137 -7 -56 -9 -166 -37 -190 -48 -11 -5 -44 -19 -72 -30 -66 -25 -173 -78
-193 -95 -8 -8 -17 -13 -20 -12 -3 0 -43 -24 -90 -55 -146 -96 -258 -189 -310
-257 -14 -18 -34 -45 -45 -59 -21 -27 -68 -122 -101 -201 -24 -58 -130 -191
-153 -191 -3 0 -19 -11 -34 -25 -15 -14 -27 -23 -27 -19 0 3 -10 0 -22 -8 -35
-22 -108 -46 -162 -54 -27 -4 -283 -7 -570 -8 -604 -2 -577 2 -625 -98 -16
-35 -17 -92 -15 -865 1 -455 3 -836 6 -845 7 -30 47 -77 79 -93 18 -10 61 -17
103 -19 39 -1 76 -5 82 -9 6 -3 14 -3 18 1 10 9 547 9 553 -1 2 -4 10 -4 16 0
17 10 118 10 124 0 3 -4 10 -4 16 1 15 10 787 10 804 -1 6 -4 14 -4 16 0 6 9
231 9 332 -1 39 -3 102 -9 140 -11 39 -3 104 -7 145 -10 41 -4 131 -8 200 -10
69 -2 125 -5 125 -6 0 -1 106 -3 235 -4 339 -5 578 -13 590 -20 5 -3 10 -3 10
2 0 4 28 8 63 9 138 1 264 17 390 50 34 9 69 17 77 19 44 10 189 79 245 118
59 41 142 125 157 158 7 16 16 29 19 29 4 0 10 10 14 23 4 12 8 24 9 27 29 70
40 200 24 275 l-10 45 74 73 c78 77 86 87 119 157 42 88 55 142 53 232 -1 84
-32 216 -57 246 -7 9 -4 21 13 45 13 18 33 46 44 62 12 17 24 32 27 35 4 3 18
30 32 61 44 97 54 211 28 309 -16 57 -73 163 -110 202 l-29 31 25 55 c47 106
61 233 34 315 -6 17 -10 34 -9 37 8 18 -141 190 -164 190 -4 0 -13 6 -20 13
-23 21 -192 90 -200 81 -3 -2 -17 0 -32 5 -66 26 -420 36 -607 18 l-86 -9 -8
44 c-4 24 -9 48 -11 53 -7 23 -55 210 -59 229 -2 12 -23 93 -45 181 -23 88
-44 169 -46 180 -2 11 -10 42 -18 68 -8 26 -11 48 -8 49 4 0 120 2 257 4 138
1 260 2 273 3 22 1 23 3 22 99 -2 129 -2 134 10 127 6 -4 28 -9 48 -11 37 -4
45 -5 137 -22 77 -15 208 -43 225 -50 8 -3 31 -7 50 -9 19 -3 37 -9 38 -14 2
-5 7 -7 12 -4 4 3 30 -2 56 -10 27 -8 49 -14 49 -14 0 2 68 -15 108 -28 26 -8
53 -16 60 -17 32 -5 193 -60 205 -68 6 -6 12 -8 12 -4 0 5 52 -12 105 -34 11
-5 40 -16 65 -24 25 -8 61 -21 80 -29 19 -9 53 -23 75 -32 59 -24 71 -29 178
-79 54 -25 100 -46 102 -46 2 0 27 -13 55 -30 27 -16 50 -27 50 -24 0 3 12 -3
28 -14 15 -11 58 -36 96 -56 38 -21 96 -55 128 -77 33 -21 62 -39 64 -39 3 0
10 -5 17 -10 7 -6 50 -37 97 -70 115 -80 236 -177 297 -237 12 -12 32 -28 43
-36 12 -8 26 -34 31 -56 26 -115 130 -196 236 -185 21 2 48 5 61 6 12 1 22 6
22 10 0 4 6 8 14 8 23 0 80 62 107 116 l24 49 2 720 c0 396 2 725 2 731 1 5
23 18 50 28 28 10 55 24 62 32 6 7 15 11 20 8 5 -3 9 -1 9 4 0 5 10 13 23 19
44 21 168 147 217 221 52 79 106 204 116 269 3 21 9 45 13 53 8 18 6 214 -4
255 -4 17 -8 40 -9 53 -2 12 -6 25 -9 29 -4 3 -7 14 -7 23 0 9 -6 30 -14 46
-8 16 -22 47 -32 69 -49 110 -159 237 -266 307 -71 47 -154 89 -162 81 -8 -8
-7 -57 -10 747 -2 647 -4 719 -20 760 -17 46 -90 130 -113 130 -7 0 -13 4 -13
8 0 9 -2 10 -75 15 -27 2 -62 1 -76 -3z m-3259 -2397 c0 -392 -3 -713 -7 -714
-43 -5 -869 -2 -882 3 -17 6 -18 44 -18 710 0 386 1 705 2 708 2 3 206 5 454
5 l451 0 0 -712z"/>
</g>
</svg>
